<?xml version="1.0" encoding="UTF-8"?>
<!DOCTYPE svg PUBLIC "-//W3C//DTD SVG 1.1//EN" "http://www.w3.org/Graphics/SVG/1.1/DTD/svg11.dtd">
<!-- Creator: CorelDRAW X7 -->
<svg xmlns="http://www.w3.org/2000/svg" xml:space="preserve" width="22.5776mm" height="4.2332mm" version="1.1" style="shape-rendering:geometricPrecision; text-rendering:geometricPrecision; image-rendering:optimizeQuality; fill-rule:evenodd; clip-rule:evenodd"
viewBox="0 0 2258 423"
 xmlns:xlink="http://www.w3.org/1999/xlink">
 <defs>
  <style type="text/css">
   <![CDATA[
    .fil0 {fill:#FEFEFE;fill-rule:nonzero}
    .fil1 {fill:#F7D117;fill-rule:nonzero}
   ]]>
  </style>
 </defs>
 <g id="Слой_x0020_1">
  <metadata id="CorelCorpID_0Corel-Layer"/>
  <g id="_2344766928192">
   <path class="fil0" d="M145 108c-43,0 -95,6 -121,14l0 69c30,-8 60,-17 96,-17 54,0 90,13 90,54l0 11c-36,-13 -66,-15 -89,-15 -55,0 -121,21 -121,89 0,54 42,96 115,96 53,0 88,-20 105,-32l8 26 67 0 0 -176c0,-90 -65,-119 -150,-119zm-57 207c0,-22 17,-35 52,-35 30,0 53,4 70,12l0 35c-18,9 -42,20 -68,20 -36,0 -54,-13 -54,-32zm405 -207c-82,0 -142,25 -142,88 0,37 13,70 77,83l63 13c39,8 44,16 44,25 0,16 -13,24 -65,24 -40,0 -93,-13 -113,-20l0 70c23,8 77,18 115,18 107,0 147,-40 147,-95 0,-43 -24,-71 -85,-84l-58 -13c-35,-8 -43,-8 -43,-21 0,-19 40,-21 66,-21 30,0 62,5 102,19l0 -68c-25,-10 -62,-18 -108,-18zm364 6l-90 0 0 -74 -72 0 -10 74 -52 0 0 68 49 0 0 127c0,76 50,100 110,100 27,0 43,-2 65,-10l0 -68c-15,5 -36,8 -47,8 -35,0 -43,-17 -43,-45l0 -112 90 0 0 -68zm339 176l0 -40c0,-91 -50,-142 -145,-142 -83,0 -160,47 -160,148 0,107 67,153 170,153 42,0 86,-10 119,-20l0 -67c-31,10 -76,20 -117,20 -32,0 -79,-9 -85,-52l218 0zm-218 -53c5,-44 32,-63 74,-63 36,0 56,24 56,63l-130 0zm342 -123l-68 0 0 289 85 0 0 -185c27,-16 62,-30 108,-29l0 -81c-50,1 -86,18 -115,38l-10 -32zm415 289l0 -389 -85 0 0 389 85 0zm111 -289c-35,40 -66,83 -105,144 56,58 93,104 120,145l104 0c-11,-15 -78,-103 -130,-150 38,-50 71,-90 113,-139l-102 0zm411 55l0 -55 -271 0 0 68 160 0 -164 165 0 56 276 0 0 -68 -166 0 165 -166z"/>
   <path class="fil1" d="M1534 408c-18,0 -33,-6 -46,-18 -12,-12 -18,-28 -18,-46 0,-19 6,-34 18,-45 12,-12 28,-18 46,-18 19,0 34,6 46,18 12,11 18,26 18,45 0,18 -6,34 -18,46 -12,12 -28,18 -46,18z"/>
  </g>
 </g>
</svg>
