<svg width="117" height="20" viewBox="0 0 117 20" fill="none" xmlns="http://www.w3.org/2000/svg">
<path d="M7.51329 4.75949C5.28521 4.75949 2.59079 5.06329 1.24358 5.46835V8.96203C2.79805 8.55696 4.35252 8.10127 6.21789 8.10127C9.01594 8.10127 10.8813 8.75949 10.8813 10.8354V11.3924C9.01594 10.7342 7.46147 10.6329 6.26971 10.6329C3.41984 10.6329 0 11.6962 0 15.1392C0 17.8734 2.17626 20 5.95881 20C8.70505 20 10.5186 18.9873 11.3995 18.3797L11.814 19.6962H15.2857V10.7848C15.2857 6.22785 11.9176 4.75949 7.51329 4.75949ZM4.55979 15.2405C4.55979 14.1266 5.44066 13.4684 7.25421 13.4684C8.80868 13.4684 10.0004 13.6709 10.8813 14.0759V15.8481C9.94863 16.3038 8.70505 16.8608 7.35784 16.8608C5.49247 16.8608 4.55979 16.2025 4.55979 15.2405ZM25.5452 4.75949C21.2963 4.75949 18.1873 6.02532 18.1873 9.21519C18.1873 11.0886 18.8609 12.7595 22.1771 13.4177L25.4415 14.0759C27.4624 14.481 27.7214 14.8861 27.7214 15.3418C27.7214 16.1519 27.0478 16.557 24.3534 16.557C22.2808 16.557 19.5345 15.8987 18.4982 15.5443V19.0886C19.69 19.4937 22.488 20 24.457 20C30.0013 20 32.074 17.9747 32.074 15.1899C32.074 13.0127 30.8304 11.5949 27.6696 10.9367L24.6643 10.2785C22.8508 9.87342 22.4362 9.87342 22.4362 9.21519C22.4362 8.25316 24.5089 8.1519 25.8561 8.1519C27.4105 8.1519 29.0686 8.40506 31.1413 9.11392V5.67089C29.8459 5.16456 27.9287 4.75949 25.5452 4.75949ZM44.4061 5.06329H39.7427V1.31646H36.012L35.4938 5.06329H32.7994V8.50633H35.3384V14.9367C35.3384 18.7848 37.9291 20 41.0381 20C42.4371 20 43.2662 19.8987 44.4061 19.4937V16.0506C43.6289 16.3038 42.5407 16.4557 41.9708 16.4557C40.1572 16.4557 39.7427 15.5949 39.7427 14.1772V8.50633H44.4061V5.06329ZM61.9717 13.9747V11.9494C61.9717 7.34177 59.3809 4.75949 54.4584 4.75949C50.1577 4.75949 46.1678 7.13924 46.1678 12.2532C46.1678 17.6709 49.6395 20 54.9765 20C57.1528 20 59.4327 19.4937 61.1426 18.9873V15.5949C59.5363 16.1013 57.2046 16.6076 55.0802 16.6076C53.4221 16.6076 50.9867 16.1519 50.6758 13.9747H61.9717ZM50.6758 11.2911C50.9349 9.06329 52.3339 8.10127 54.5102 8.10127C56.3756 8.10127 57.4119 9.31646 57.4119 11.2911H50.6758ZM68.3968 5.06329H64.8733V19.6962H69.2777V10.3291C70.6767 9.51899 72.4903 8.81013 74.8738 8.86076V4.75949C72.283 4.81013 70.4176 5.67089 68.915 6.68354L68.3968 5.06329ZM89.9004 19.6962V0H85.496V19.6962H89.9004ZM95.6519 5.06329C93.8384 7.08861 92.2321 9.26582 90.2113 12.3544C93.1129 15.2911 95.0301 17.6203 96.4291 19.6962H101.818C101.248 18.9367 97.7764 14.481 95.0819 12.1013C97.0509 9.56962 98.7608 7.5443 100.937 5.06329H95.6519ZM116.948 7.8481V5.06329H102.906V8.50633H111.197L102.699 16.8608V19.6962H117V16.2532H108.399L116.948 7.8481Z" fill="#0066CC"/>
<path d="M78.4842 19.9499C77.5515 19.9499 76.7743 19.6461 76.1007 19.0385C75.4789 18.4309 75.168 17.6208 75.168 16.7094C75.168 15.7474 75.4789 14.9879 76.1007 14.4309C76.7224 13.8233 77.5515 13.5195 78.4842 13.5195C79.4687 13.5195 80.2459 13.8233 80.8677 14.4309C81.4895 14.9879 81.8004 15.7474 81.8004 16.7094C81.8004 17.6208 81.4895 18.4309 80.8677 19.0385C80.2459 19.6461 79.4169 19.9499 78.4842 19.9499Z" fill="#F7D117"/>
</svg>
