<svg width="130" height="39" viewBox="0 0 130 39" fill="none" xmlns="http://www.w3.org/2000/svg">
<g clip-path="url(#clip0_2004_39)">
<path d="M124.626 38.0176H4.52663C2.29618 38.0176 0.478604 36.1956 0.478604 33.9658V4.73171C0.478604 2.50188 2.29519 0.68655 4.52663 0.68655H124.626C126.866 0.68655 128.744 2.51153 128.744 4.73171V33.9658C128.744 36.186 126.865 38.0176 124.626 38.0176Z" fill="white" stroke="white" stroke-width="0.957207"/>
<path d="M45.2533 7.7011C45.2533 7.39574 45.138 7.1527 44.9074 6.97198C44.6769 6.79126 44.3637 6.7009 43.968 6.7009C43.6283 6.7009 43.3448 6.79126 43.1173 6.97198C42.8899 7.14959 42.7761 7.38016 42.7761 7.66371H41.5983C41.5983 7.29292 41.7012 6.96263 41.9068 6.67285C42.1125 6.38307 42.3976 6.15873 42.7621 5.99982C43.1267 5.83779 43.5286 5.75677 43.968 5.75677C44.747 5.75677 45.3514 5.92659 45.7814 6.26623C46.2146 6.60586 46.4311 7.08104 46.4311 7.69175C46.4311 8.00023 46.3376 8.28378 46.1507 8.5424C45.9637 8.80102 45.702 9.00511 45.3655 9.15467C45.7456 9.28554 46.0354 9.48496 46.2348 9.75293C46.4373 10.0178 46.5386 10.3481 46.5386 10.7438C46.5386 11.3545 46.3049 11.8406 45.8375 12.202C45.3701 12.5604 44.747 12.7395 43.968 12.7395C43.4881 12.7395 43.0535 12.6538 42.664 12.4825C42.2776 12.3111 41.9863 12.0774 41.79 11.7814C41.5968 11.4854 41.5002 11.1457 41.5002 10.7625H42.678C42.678 11.0554 42.7995 11.3031 43.0426 11.5056C43.2856 11.705 43.5941 11.8048 43.968 11.8048C44.3855 11.8048 44.7205 11.7066 44.9729 11.5103C45.2284 11.314 45.3561 11.0585 45.3561 10.7438C45.3561 10.3605 45.2439 10.0832 45.0196 9.91184C44.7984 9.73735 44.4728 9.6501 44.0428 9.6501H43.2435V8.71533H44.0007C44.8358 8.71533 45.2533 8.37725 45.2533 7.7011Z" fill="black"/>
<path d="M50.8359 12.6507C50.7861 12.5541 50.7425 12.3968 50.7051 12.1787C50.3436 12.5557 49.9012 12.7442 49.3777 12.7442C48.8698 12.7442 48.4554 12.5993 48.1345 12.3095C47.8135 12.0198 47.653 11.6614 47.653 11.2345C47.653 10.6955 47.8525 10.2826 48.2513 9.99597C48.6533 9.70619 49.2266 9.5613 49.9713 9.5613H50.6677V9.22946C50.6677 8.96772 50.5945 8.75895 50.448 8.60316C50.3016 8.44425 50.0788 8.36479 49.7797 8.36479C49.521 8.36479 49.3091 8.43022 49.144 8.56109C48.9789 8.68885 48.8963 8.85243 48.8963 9.05185H47.7605C47.7605 8.77453 47.8525 8.51591 48.0363 8.27599C48.2201 8.03295 48.4694 7.84288 48.7841 7.70578C49.1019 7.56868 49.4556 7.50013 49.8451 7.50013C50.4371 7.50013 50.9092 7.64969 51.2613 7.94882C51.6134 8.24483 51.7941 8.66236 51.8034 9.20141V11.4823C51.8034 11.9372 51.8673 12.3002 51.9951 12.5713V12.6507H50.8359ZM49.588 11.8328C49.8124 11.8328 50.0227 11.7783 50.219 11.6692C50.4184 11.5602 50.568 11.4137 50.6677 11.2299V10.2764H50.0554C49.6348 10.2764 49.3185 10.3496 49.1066 10.4961C48.8947 10.6425 48.7888 10.8497 48.7888 11.1177C48.7888 11.3358 48.8605 11.5103 49.0038 11.6412C49.1502 11.7689 49.345 11.8328 49.588 11.8328Z" fill="black"/>
<path d="M56.6476 8.50968H54.4509V12.6507H53.3198V7.5936H56.6476V8.50968Z" fill="black"/>
<path d="M62.0059 10.1736C62.0059 10.9557 61.8283 11.5804 61.4731 12.0478C61.1179 12.5121 60.6411 12.7442 60.0429 12.7442C59.4883 12.7442 59.0442 12.5619 58.7108 12.1974V14.5951H57.5751V7.5936H58.622L58.6688 8.10773C59.0022 7.70266 59.4555 7.50013 60.0289 7.50013C60.6458 7.50013 61.1288 7.7307 61.4778 8.19186C61.8299 8.6499 62.0059 9.2871 62.0059 10.1035V10.1736ZM60.8748 10.0754C60.8748 9.57065 60.7736 9.17025 60.571 8.87424C60.3716 8.57823 60.085 8.43022 59.7111 8.43022C59.2468 8.43022 58.9134 8.62185 58.7108 9.00511V11.2486C58.9165 11.6412 59.253 11.8375 59.7204 11.8375C60.0818 11.8375 60.3638 11.6926 60.5664 11.4028C60.772 11.1099 60.8748 10.6674 60.8748 10.0754Z" fill="black"/>
<path d="M64.9712 11.0242L65.9995 7.5936H67.21L65.2002 13.4172C64.8917 14.2679 64.3683 14.6932 63.6298 14.6932C63.4647 14.6932 63.2824 14.6652 63.083 14.6091V13.7304L63.298 13.7444C63.5846 13.7444 63.7996 13.6914 63.943 13.5855C64.0894 13.4827 64.2047 13.3082 64.2888 13.062L64.4524 12.6274L62.6763 7.5936H63.9009L64.9712 11.0242Z" fill="black"/>
<path d="M71.9841 8.97707C71.9841 9.20141 71.9155 9.40862 71.7784 9.59869C71.6444 9.78565 71.4543 9.93521 71.2082 10.0474C71.7878 10.2499 72.0775 10.641 72.0775 11.2205C72.0775 11.6848 71.889 12.0556 71.512 12.3329C71.135 12.6071 70.6302 12.7442 69.9977 12.7442C69.6113 12.7442 69.2592 12.6803 68.9414 12.5526C68.6235 12.4217 68.3758 12.2379 68.1982 12.0011C68.0206 11.7611 67.9318 11.4776 67.9318 11.1504H69.0629C69.0629 11.3561 69.1548 11.529 69.3386 11.6692C69.5225 11.8063 69.7546 11.8749 70.0351 11.8749C70.3124 11.8749 70.532 11.811 70.6941 11.6832C70.8592 11.5524 70.9418 11.3825 70.9418 11.1738C70.9418 10.9276 70.8701 10.75 70.7268 10.641C70.5835 10.5319 70.3622 10.4774 70.0631 10.4774H69.2498V9.65945H70.0911C70.599 9.65322 70.853 9.44445 70.853 9.03315C70.853 8.8275 70.7798 8.66703 70.6333 8.55175C70.4869 8.43646 70.2859 8.37881 70.0304 8.37881C69.7811 8.37881 69.5708 8.44113 69.3994 8.56577C69.228 8.68729 69.1423 8.84152 69.1423 9.02848H68.0113C68.0113 8.5829 68.1982 8.21834 68.5721 7.9348C68.946 7.64813 69.4212 7.5048 69.9977 7.5048C70.624 7.5048 71.1116 7.63255 71.4606 7.88806C71.8096 8.14356 71.9841 8.50656 71.9841 8.97707Z" fill="black"/>
<path d="M76.487 7.5936H77.6181V12.6507H76.487V9.27619L74.5053 12.6507H73.3742V7.5936H74.5053V10.9681L76.487 7.5936Z" fill="black"/>
<path d="M83.0933 8.49566H81.4527V12.6507H80.317V8.49566H78.6952V7.5936H83.0933V8.49566Z" fill="black"/>
<path d="M86.0679 12.7442C85.3481 12.7442 84.7639 12.5183 84.3152 12.0665C83.8696 11.6116 83.6468 11.0071 83.6468 10.253V10.1128C83.6468 9.60804 83.7434 9.15779 83.9366 8.76207C84.1329 8.36323 84.4071 8.0532 84.7592 7.83197C85.1113 7.61074 85.5039 7.50013 85.937 7.50013C86.6256 7.50013 87.1569 7.7198 87.5308 8.15914C87.9078 8.59848 88.0964 9.22011 88.0964 10.024V10.4821H84.7919C84.8262 10.8996 84.9649 11.2299 85.2079 11.4729C85.4541 11.716 85.7625 11.8375 86.1333 11.8375C86.6537 11.8375 87.0775 11.6271 87.4046 11.2065L88.0169 11.7907C87.8144 12.093 87.5433 12.3282 87.2037 12.4965C86.8671 12.6616 86.4885 12.7442 86.0679 12.7442ZM85.9324 8.41153C85.6208 8.41153 85.3684 8.52059 85.1752 8.7387C84.9851 8.95681 84.8636 9.26061 84.8106 9.6501H86.9746V9.56597C86.9497 9.18583 86.8484 8.89917 86.6708 8.70598C86.4932 8.50968 86.2471 8.41153 85.9324 8.41153Z" fill="black"/>
<path d="M92.0265 12.6507V7.5936H94.0783C94.7701 7.5936 95.2967 7.71512 95.6581 7.95816C96.0196 8.19809 96.2003 8.54396 96.2003 8.99576C96.2003 9.22946 96.1271 9.43978 95.9806 9.62673C95.8373 9.81057 95.6238 9.95235 95.3403 10.0521C95.6706 10.1206 95.9323 10.2593 96.1255 10.468C96.3187 10.6768 96.4153 10.923 96.4153 11.2065C96.4153 11.677 96.2408 12.0353 95.8918 12.2815C95.5459 12.5276 95.0474 12.6507 94.3962 12.6507H92.0265ZM93.1623 10.4961V11.7533H94.4055C94.9882 11.7533 95.2795 11.5446 95.2795 11.127C95.2795 10.7064 94.9835 10.4961 94.3915 10.4961H93.1623ZM93.1623 9.68282H94.097C94.742 9.68282 95.0645 9.49275 95.0645 9.11261C95.0645 8.71377 94.7592 8.50812 94.1484 8.49566H93.1623V9.68282Z" fill="black"/>
<path d="M28.8364 19.1456C28.8087 16.0605 31.3625 14.5596 31.4793 14.4898C30.0329 12.381 27.7912 12.0929 27.0034 12.0699C25.1205 11.8718 23.2942 13.1966 22.3351 13.1966C21.3568 13.1966 19.8798 12.0891 18.288 12.1216C16.2396 12.1532 14.3232 13.3392 13.2722 15.1809C11.1032 18.936 12.7209 24.4543 14.799 27.4896C15.8385 28.9761 17.0532 30.6359 18.6431 30.5775C20.1986 30.5134 20.7796 29.5859 22.6567 29.5859C24.5165 29.5859 25.0622 30.5775 26.6837 30.5402C28.353 30.5134 29.404 29.047 30.4072 27.547C31.6085 25.8432 32.0909 24.1652 32.1101 24.0791C32.0708 24.0657 28.868 22.8433 28.8364 19.1456Z" fill="black"/>
<path d="M25.7733 10.0731C26.6099 9.02691 27.1823 7.60354 27.0234 6.15912C25.8125 6.21272 24.2982 6.99668 23.4262 8.01993C22.6547 8.92162 21.9655 10.3995 22.1436 11.7894C23.5038 11.8909 24.9003 11.1031 25.7733 10.0731Z" fill="black"/>
<path d="M51.349 30.3644H49.1751L47.9844 26.6227H43.8454L42.7111 30.3644H40.5947L44.6954 17.6259H47.2282L51.349 30.3644ZM47.6254 25.0529L46.5486 21.7266C46.4346 21.3868 46.2212 20.5866 45.9063 19.3269H45.868C45.7426 19.8687 45.5406 20.6689 45.263 21.7266L44.2053 25.0529H47.6254Z" fill="black"/>
<path d="M61.8954 25.6575C61.8954 27.2197 61.4732 28.4545 60.629 29.3609C59.8728 30.1679 58.9338 30.5708 57.8129 30.5708C56.603 30.5708 55.7338 30.1363 55.2045 29.2671H55.1662V34.1058H53.1254V24.2016C53.1254 23.2195 53.0996 22.2116 53.0498 21.1778H54.8446L54.9585 22.6337H54.9968C55.6773 21.5367 56.7102 20.9892 58.0962 20.9892C59.1798 20.9892 60.0843 21.4171 60.808 22.2738C61.5335 23.1314 61.8954 24.259 61.8954 25.6575ZM59.8163 25.7322C59.8163 24.8381 59.6153 24.1011 59.2113 23.521C58.7701 22.9161 58.1776 22.6136 57.4348 22.6136C56.9313 22.6136 56.4737 22.782 56.065 23.1142C55.6553 23.4492 55.3873 23.8867 55.2619 24.4284C55.1987 24.6811 55.1671 24.8879 55.1671 25.0506V26.5822C55.1671 27.2503 55.372 27.8141 55.7817 28.2745C56.1914 28.7349 56.7236 28.9646 57.3783 28.9646C58.1469 28.9646 58.7452 28.6679 59.1731 28.0764C59.6019 27.4838 59.8163 26.7028 59.8163 25.7322Z" fill="black"/>
<path d="M72.4588 25.6594C72.4588 27.2216 72.0367 28.4564 71.1915 29.3629C70.4363 30.1698 69.4973 30.5728 68.3764 30.5728C67.1665 30.5728 66.2973 30.1382 65.7689 29.2691H65.7306V34.1078H63.6899V24.2035C63.6899 23.2214 63.664 22.2135 63.6143 21.1797H65.409L65.5229 22.6356H65.5612C66.2408 21.5387 67.2737 20.9911 68.6607 20.9911C69.7433 20.9911 70.6478 21.419 71.3734 22.2757C72.0961 23.1334 72.4588 24.261 72.4588 25.6594ZM70.3798 25.7341C70.3798 24.8401 70.1778 24.103 69.7739 23.523C69.3326 22.918 68.742 22.6155 67.9983 22.6155C67.4938 22.6155 67.0372 22.784 66.6275 23.1161C66.2179 23.4512 65.9508 23.8886 65.8254 24.4304C65.7632 24.6831 65.7306 24.8899 65.7306 25.0526V26.5841C65.7306 27.2522 65.9355 27.816 66.3433 28.2765C66.7529 28.7359 67.2852 28.9666 67.9418 28.9666C68.7104 28.9666 69.3087 28.6699 69.7366 28.0783C70.1654 27.4858 70.3798 26.7047 70.3798 25.7341Z" fill="black"/>
<path d="M84.2709 26.7923C84.2709 27.8758 83.8947 28.7574 83.1395 29.438C82.3096 30.1817 81.1542 30.5531 79.6696 30.5531C78.2989 30.5531 77.2 30.2889 76.3682 29.7596L76.841 28.0586C77.737 28.6004 78.72 28.8723 79.7911 28.8723C80.5598 28.8723 81.158 28.6981 81.5878 28.3516C82.0157 28.005 82.2291 27.5398 82.2291 26.9598C82.2291 26.4429 82.053 26.0074 81.6998 25.6541C81.3485 25.3009 80.7617 24.9726 79.9424 24.6692C77.7121 23.8374 76.5979 22.6188 76.5979 21.0165C76.5979 19.9693 76.9884 19.1107 77.7705 18.4425C78.5496 17.7735 79.5892 17.4394 80.8891 17.4394C82.0482 17.4394 83.0112 17.6414 83.7798 18.0443L83.2696 19.708C82.5517 19.3174 81.74 19.1222 80.8316 19.1222C80.1137 19.1222 79.5528 19.2992 79.1508 19.6515C78.811 19.9664 78.6406 20.3503 78.6406 20.8049C78.6406 21.3084 78.8349 21.7248 79.2254 22.0522C79.5652 22.3547 80.1826 22.682 81.0786 23.0352C82.1746 23.4765 82.9796 23.9924 83.4974 24.584C84.0134 25.1736 84.2709 25.9116 84.2709 26.7923Z" fill="black"/>
<path d="M91.0187 22.7108H88.7693V27.1704C88.7693 28.3047 89.1656 28.8714 89.9601 28.8714C90.3247 28.8714 90.6272 28.8398 90.8665 28.7766L90.923 30.3263C90.521 30.4766 89.9916 30.5522 89.336 30.5522C88.53 30.5522 87.9001 30.3062 87.4455 29.8152C86.9927 29.3232 86.7649 28.4981 86.7649 27.3389V22.7089H85.4248V21.1773H86.7649V19.4955L88.7693 18.8906V21.1773H91.0187V22.7108Z" fill="black"/>
<path d="M101.169 25.6958C101.169 27.1077 100.765 28.2669 99.9588 29.1734C99.1135 30.1066 97.9917 30.5718 96.5932 30.5718C95.2455 30.5718 94.1724 30.1248 93.3722 29.2308C92.572 28.3368 92.1719 27.2082 92.1719 25.848C92.1719 24.4247 92.5835 23.2588 93.4095 22.3523C94.2337 21.4449 95.346 20.9911 96.7445 20.9911C98.0922 20.9911 99.1767 21.4382 99.9951 22.3332C100.778 23.2013 101.169 24.3222 101.169 25.6958ZM99.0513 25.7619C99.0513 24.9147 98.8704 24.1882 98.5038 23.5823C98.0759 22.8491 97.4643 22.4834 96.6717 22.4834C95.8514 22.4834 95.2282 22.85 94.8004 23.5823C94.4338 24.1892 94.2528 24.9272 94.2528 25.8002C94.2528 26.6473 94.4338 27.3738 94.8004 27.9788C95.2416 28.712 95.8581 29.0776 96.6535 29.0776C97.4327 29.0776 98.0443 28.7043 98.4856 27.9596C98.8618 27.3422 99.0513 26.608 99.0513 25.7619Z" fill="black"/>
<path d="M107.8 22.9745C107.598 22.9372 107.383 22.918 107.157 22.918C106.439 22.918 105.884 23.1889 105.493 23.7316C105.153 24.2102 104.983 24.8152 104.983 25.5455V30.3651H102.943L102.962 24.0724C102.962 23.0137 102.936 22.0498 102.886 21.1807H104.663L104.738 22.9381H104.794C105.01 22.3341 105.35 21.8479 105.815 21.4832C106.269 21.1548 106.761 20.9911 107.29 20.9911C107.478 20.9911 107.649 21.0046 107.8 21.0285V22.9745Z" fill="black"/>
<path d="M116.929 25.3386C116.929 25.7043 116.905 26.0125 116.854 26.2643H110.732C110.756 27.1717 111.052 27.8657 111.62 28.3443C112.136 28.7721 112.803 28.9866 113.623 28.9866C114.529 28.9866 115.356 28.842 116.1 28.552L116.42 29.9687C115.55 30.3477 114.524 30.5363 113.34 30.5363C111.916 30.5363 110.798 30.117 109.984 29.2795C109.173 28.4419 108.766 27.3172 108.766 25.9063C108.766 24.5212 109.144 23.3677 109.901 22.4479C110.694 21.4658 111.765 20.9747 113.112 20.9747C114.436 20.9747 115.438 21.4658 116.119 22.4479C116.658 23.228 116.929 24.1929 116.929 25.3386ZM114.983 24.8093C114.996 24.2043 114.863 23.6817 114.587 23.2404C114.233 22.6728 113.691 22.3895 112.96 22.3895C112.293 22.3895 111.75 22.6661 111.336 23.2213C110.996 23.6626 110.794 24.1919 110.732 24.8083H114.983V24.8093Z" fill="black"/>
</g>
<defs>
<clipPath id="clip0_2004_39">
<rect width="129.223" height="38.2883" fill="white" transform="translate(0 0.207153)"/>
</clipPath>
</defs>
</svg>
