<svg width="130" height="39" viewBox="0 0 130 39" fill="none" xmlns="http://www.w3.org/2000/svg">
<g clip-path="url(#clip0_2004_56)">
<path d="M5.49551 0.207153H125.146C126.416 0.207153 127.633 0.711395 128.531 1.60895C129.428 2.50651 129.932 3.72385 129.932 4.99319V33.7094C129.932 34.9787 129.428 36.1961 128.531 37.0936C127.633 37.9912 126.416 38.4954 125.146 38.4954H5.49551C4.22617 38.4954 3.00883 37.9912 2.11127 37.0936C1.21371 36.1961 0.709473 34.9787 0.709473 33.7094V4.99319C0.709473 3.72385 1.21371 2.50651 2.11127 1.60895C3.00883 0.711395 4.22617 0.207153 5.49551 0.207153Z" fill="white"/>
<path d="M65.9337 21.0262C65.1272 21.0281 64.3394 21.2691 63.6699 21.7188C63.0004 22.1684 62.4792 22.8065 62.1723 23.5523C61.8655 24.2981 61.7866 25.1182 61.9458 25.9088C62.105 26.6995 62.4951 27.4251 63.0667 27.9941C63.6383 28.563 64.3658 28.9497 65.1572 29.1051C65.9485 29.2606 66.7682 29.1779 67.5126 28.8676C68.257 28.5572 68.8926 28.0331 69.3391 27.3614C69.7856 26.6898 70.0229 25.9009 70.021 25.0944C70.0288 24.5564 69.9283 24.0223 69.7254 23.5239C69.5225 23.0256 69.2214 22.5731 68.84 22.1936C68.4587 21.814 68.0048 21.515 67.5055 21.3145C67.0062 21.1139 66.4717 21.0159 65.9337 21.0262ZM65.9337 27.564C65.4394 27.5985 64.9461 27.4836 64.518 27.2341C64.0898 26.9846 63.7467 26.6121 63.5331 26.165C63.3195 25.7178 63.2453 25.2168 63.3202 24.727C63.3952 24.2371 63.6157 23.7812 63.9532 23.4183C64.2907 23.0555 64.7296 22.8026 65.2127 22.6925C65.6959 22.5824 66.2009 22.6202 66.6623 22.801C67.1237 22.9818 67.52 23.2971 67.7998 23.7061C68.0796 24.1151 68.2298 24.5988 68.231 25.0944C68.2464 25.4084 68.1988 25.7222 68.091 26.0175C67.9832 26.3128 67.8173 26.5835 67.6032 26.8137C67.3891 27.0439 67.1311 27.2288 66.8444 27.3577C66.5576 27.4865 66.248 27.5567 65.9337 27.564ZM57.0125 21.0262C56.2061 21.0281 55.4182 21.2691 54.7487 21.7188C54.0792 22.1684 53.558 22.8065 53.2512 23.5523C52.9443 24.2981 52.8655 25.1182 53.0247 25.9088C53.1839 26.6995 53.5739 27.4251 54.1455 27.9941C54.7171 28.563 55.4446 28.9497 56.236 29.1051C57.0274 29.2606 57.8471 29.1779 58.5914 28.8676C59.3358 28.5572 59.9714 28.0331 60.4179 27.3614C60.8644 26.6898 61.1017 25.9009 61.0998 25.0944C61.1076 24.5564 61.0071 24.0223 60.8042 23.5239C60.6013 23.0256 60.3002 22.5731 59.9189 22.1936C59.5375 21.814 59.0837 21.515 58.5844 21.3145C58.0851 21.1139 57.5505 21.0159 57.0125 21.0262ZM57.0125 27.564C56.5182 27.5985 56.0249 27.4836 55.5968 27.2341C55.1687 26.9846 54.8255 26.6121 54.6119 26.165C54.3983 25.7178 54.3241 25.2168 54.3991 24.727C54.474 24.2371 54.6945 23.7812 55.0321 23.4183C55.3696 23.0555 55.8084 22.8026 56.2915 22.6925C56.7747 22.5824 57.2798 22.6202 57.7412 22.801C58.2025 22.9818 58.5989 23.2971 58.8786 23.7061C59.1584 24.1151 59.3086 24.5988 59.3098 25.0944C59.3253 25.4084 59.2777 25.7222 59.1698 26.0175C59.062 26.3128 58.8962 26.5835 58.682 26.8137C58.4679 27.0439 58.2099 27.2288 57.9232 27.3577C57.6364 27.4865 57.3268 27.5567 57.0125 27.564ZM46.4067 22.2802V24.0032H50.5418C50.477 24.8147 50.1396 25.5804 49.5846 26.176C49.1698 26.5986 48.6709 26.9295 48.1202 27.1471C47.5695 27.3648 46.9792 27.4644 46.3875 27.4395C45.169 27.4395 44.0003 26.9555 43.1387 26.0938C42.277 25.2322 41.7929 24.0635 41.7929 22.8449C41.7929 21.6264 42.277 20.4577 43.1387 19.5961C44.0003 18.7344 45.169 18.2503 46.3875 18.2503C47.5558 18.233 48.6838 18.6766 49.5272 19.4851L50.7428 18.2695C50.1723 17.7052 49.4949 17.2605 48.7504 16.9613C48.0058 16.6622 47.209 16.5147 46.4067 16.5274C45.5557 16.4943 44.7068 16.6333 43.9109 16.9361C43.1149 17.2389 42.3883 17.6992 41.7745 18.2896C41.1608 18.8799 40.6725 19.5881 40.3389 20.3717C40.0054 21.1553 39.8335 21.9981 39.8335 22.8497C39.8335 23.7013 40.0054 24.5442 40.3389 25.3277C40.6725 26.1113 41.1608 26.8195 41.7745 27.4099C42.3883 28.0002 43.1149 28.4606 43.9109 28.7634C44.7068 29.0662 45.5557 29.2052 46.4067 29.1721C47.2255 29.2048 48.042 29.0639 48.8025 28.7587C49.563 28.4535 50.2504 27.9909 50.8194 27.4012C51.8246 26.297 52.3602 24.8447 52.3127 23.3523C52.3161 22.993 52.2873 22.6342 52.2265 22.2802H46.4067ZM89.7777 23.6203C89.5281 22.8858 89.0613 22.2446 88.4391 21.7813C87.8169 21.3181 87.0687 21.0548 86.2935 21.0262C85.7699 21.0252 85.2517 21.1316 84.7708 21.3388C84.29 21.546 83.8567 21.8496 83.4979 22.2309C83.139 22.6122 82.8622 23.063 82.6845 23.5556C82.5068 24.0481 82.432 24.5718 82.4647 25.0944C82.4565 25.9682 82.7312 26.8212 83.2478 27.5259C83.7644 28.2307 84.4951 28.7495 85.3308 29.0047C86.1665 29.2599 87.0624 29.238 87.8846 28.9421C88.7068 28.6462 89.4112 28.0922 89.8926 27.363L88.5047 26.4057C88.2978 26.7506 88.0043 27.0354 87.6534 27.2318C87.3024 27.4283 86.9062 27.5296 86.5041 27.5257C86.0892 27.5428 85.6789 27.434 85.3269 27.2137C84.975 26.9933 84.698 26.6716 84.5322 26.2909L89.9788 24.0414L89.7777 23.6203ZM84.2259 24.9795C84.2065 24.6822 84.2467 24.384 84.3439 24.1023C84.4412 23.8207 84.5937 23.5613 84.7925 23.3394C84.9913 23.1174 85.2324 22.9373 85.5016 22.8097C85.7709 22.6821 86.0629 22.6094 86.3605 22.5961C86.6689 22.5772 86.976 22.6498 87.2434 22.8048C87.5107 22.9597 87.7264 23.1901 87.8633 23.4671L84.2259 24.9795ZM79.8036 28.9232H81.5936V16.9581H79.8036V28.9232ZM76.8746 21.9356H76.8076C76.5402 21.6311 76.2102 21.3879 75.8401 21.2227C75.4701 21.0575 75.0687 20.9741 74.6634 20.9784C73.6174 21.0291 72.631 21.4804 71.9086 22.2386C71.1862 22.9969 70.7832 24.004 70.7832 25.0513C70.7832 26.0986 71.1862 27.1057 71.9086 27.864C72.631 28.6222 73.6174 29.0735 74.6634 29.1242C75.0693 29.1324 75.4719 29.0508 75.8425 28.8853C76.2132 28.7198 76.5427 28.4746 76.8076 28.167H76.8746V28.7509C76.8746 30.3112 76.0418 31.1439 74.7017 31.1439C74.2541 31.1341 73.8194 30.9914 73.453 30.7341C73.0866 30.4767 72.8049 30.1163 72.6437 29.6985L71.0931 30.3399C71.3798 31.0599 71.8782 31.676 72.5226 32.1067C73.1669 32.5374 73.9268 32.7624 74.7017 32.752C76.798 32.752 78.5306 31.5172 78.5306 28.5116V21.2655H76.8746V21.9356ZM74.8166 27.564C74.1894 27.5249 73.6008 27.2482 73.1705 26.7902C72.7402 26.3323 72.5007 25.7275 72.5007 25.0992C72.5007 24.4708 72.7402 23.866 73.1705 23.4081C73.6008 22.9502 74.1894 22.6735 74.8166 22.6344C75.1231 22.6476 75.4239 22.7223 75.7009 22.8542C75.978 22.986 76.2257 23.1722 76.4293 23.4017C76.6329 23.6312 76.7883 23.8994 76.8862 24.1902C76.984 24.4809 77.0224 24.7884 76.999 25.0944C77.0251 25.4013 76.9887 25.7104 76.892 26.0029C76.7952 26.2954 76.6402 26.5652 76.4362 26.7961C76.2322 27.0269 75.9834 27.214 75.7051 27.346C75.4267 27.478 75.1244 27.5521 74.8166 27.564ZM98.1629 16.9581H93.8746V28.9232H95.6646V24.386H98.1629C98.673 24.4227 99.1853 24.3539 99.6676 24.1838C100.15 24.0138 100.592 23.7462 100.967 23.3977C101.341 23.0493 101.64 22.6274 101.844 22.1585C102.048 21.6895 102.153 21.1835 102.153 20.6721C102.153 20.1606 102.048 19.6546 101.844 19.1857C101.64 18.7168 101.341 18.2949 100.967 17.9464C100.592 17.598 100.15 17.3304 99.6676 17.1603C99.1853 16.9903 98.673 16.9215 98.1629 16.9581ZM98.1629 22.7014H95.6646V18.6237H98.2012C98.4702 18.6237 98.7365 18.6766 98.9851 18.7796C99.2336 18.8825 99.4594 19.0334 99.6496 19.2236C99.8398 19.4138 99.9907 19.6397 100.094 19.8882C100.197 20.1367 100.25 20.4031 100.25 20.6721C100.25 20.9411 100.197 21.2075 100.094 21.456C99.9907 21.7045 99.8398 21.9303 99.6496 22.1205C99.4594 22.3107 99.2336 22.4616 98.9851 22.5646C98.7365 22.6675 98.4702 22.7205 98.2012 22.7205L98.1629 22.7014ZM109.209 20.988C108.557 20.9478 107.908 21.0995 107.341 21.4245C106.775 21.7494 106.316 22.2333 106.022 22.8162L107.601 23.4767C107.761 23.189 108 22.9536 108.29 22.799C108.581 22.6444 108.91 22.5773 109.238 22.6056C109.465 22.5791 109.695 22.5981 109.915 22.6615C110.135 22.7249 110.34 22.8314 110.518 22.9748C110.696 23.1183 110.844 23.2958 110.953 23.497C111.062 23.6982 111.13 23.9191 111.152 24.1467V24.2616C110.577 23.959 109.936 23.8013 109.286 23.8021C107.582 23.8021 105.84 24.7594 105.84 26.5015C105.857 26.8718 105.948 27.2349 106.108 27.5693C106.267 27.9037 106.493 28.2025 106.771 28.4481C107.048 28.6936 107.373 28.8808 107.724 28.9986C108.075 29.1164 108.447 29.1624 108.817 29.1338C109.266 29.1586 109.713 29.0636 110.114 28.8584C110.514 28.6532 110.853 28.3452 111.095 27.966H111.152V28.9232H112.875V24.319C112.875 22.2228 111.286 21.0071 109.247 21.0071L109.209 20.988ZM108.989 27.5448C108.405 27.5448 107.591 27.2481 107.591 26.5302C107.591 25.573 108.606 25.2475 109.506 25.2475C110.074 25.2335 110.636 25.3723 111.133 25.6496C111.073 26.1694 110.826 26.6498 110.439 27.0018C110.052 27.3538 109.55 27.5535 109.027 27.564L108.989 27.5448ZM119.154 21.2655L117.106 26.4536H117.049L114.924 21.2655H113.009L116.197 28.5212L114.378 32.551H116.245L121.145 21.2655H119.154ZM103.073 28.9232H104.854V16.9581H103.073V28.9232Z" fill="black"/>
<path d="M10.7024 7.4237C10.3869 7.79664 10.226 8.27605 10.2525 8.76379V29.9372C10.2199 30.4257 10.3816 30.9074 10.7024 31.2773L10.7694 31.3539L22.6292 19.4941V19.2069L10.7694 7.35669L10.7024 7.4237Z" fill="url(#paint0_linear_2004_56)"/>
<path d="M26.5549 23.4477L22.6304 19.4945V19.2073L26.5549 15.254L26.6411 15.3115L31.341 17.9725C32.681 18.7287 32.681 19.9731 31.341 20.7388L26.6602 23.3999L26.5549 23.4477Z" fill="url(#paint1_linear_2004_56)"/>
<path d="M26.6689 23.3911L22.6294 19.3517L10.7026 31.2785C10.9731 31.5192 11.3193 31.6578 11.6812 31.67C12.0431 31.6822 12.3979 31.5674 12.6841 31.3455L26.6689 23.3911Z" fill="url(#paint2_linear_2004_56)"/>
<path d="M26.6689 15.3127L12.6841 7.36786C12.3998 7.14284 12.0453 7.02524 11.6829 7.03574C11.3205 7.04625 10.9734 7.18418 10.7026 7.4253L22.6294 19.3521L26.6689 15.3127Z" fill="url(#paint3_linear_2004_56)"/>
<path opacity="0.2" d="M26.554 23.3039L12.6841 31.2009C12.4083 31.409 12.0723 31.5215 11.7268 31.5215C11.3814 31.5215 11.0454 31.409 10.7696 31.2009L10.7026 31.2679L10.7696 31.3444C11.0454 31.5525 11.3814 31.6651 11.7268 31.6651C12.0723 31.6651 12.4083 31.5525 12.6841 31.3444L26.6689 23.39L26.554 23.3039Z" fill="black"/>
<path opacity="0.12" d="M10.7035 31.1447C10.3961 30.765 10.2454 30.2822 10.2823 29.795V29.9386C10.2498 30.4272 10.4115 30.9088 10.7322 31.2787L10.7992 31.2117L10.7035 31.1447Z" fill="black"/>
<path opacity="0.12" d="M31.3402 20.5961L26.5542 23.305L26.6403 23.3911L31.3402 20.7301C31.6177 20.6128 31.8583 20.4228 32.0369 20.1802C32.2154 19.9377 32.3253 19.6514 32.3549 19.3517C32.295 19.6241 32.172 19.8786 31.9958 20.0947C31.8196 20.3109 31.595 20.4826 31.3402 20.5961Z" fill="black"/>
<path opacity="0.25" d="M12.6837 7.50189L31.3397 18.1077C31.5945 18.2212 31.819 18.3929 31.9953 18.6091C32.1715 18.8252 32.2945 19.0797 32.3544 19.3521C32.3248 19.0524 32.2149 18.7661 32.0364 18.5236C31.8578 18.281 31.6171 18.091 31.3397 17.9737L12.6837 7.36788C11.3532 6.60211 10.2524 7.23387 10.2524 8.7654V8.90898C10.2812 7.37745 11.3532 6.7457 12.6837 7.50189Z" fill="white"/>
<path d="M41.0186 13.8672H40.3198V11.9528H40.9133C41.1803 11.6629 41.3811 11.3185 41.5018 10.9433C41.6224 10.5681 41.6601 10.1711 41.6121 9.77995V6.90833H45.4409V11.9432H46.0822V13.8576H45.3739V12.6516H41.0186V13.8672ZM42.3491 9.77995C42.3918 10.5489 42.2017 11.3128 41.8035 11.972H44.6751V7.61666H42.3491V9.77995Z" fill="black" stroke="white" stroke-width="0.191441" stroke-miterlimit="10"/>
<path d="M51.8342 11.9043C51.5586 12.1807 51.2311 12.4 50.8706 12.5496C50.51 12.6992 50.1235 12.7763 49.7332 12.7763C49.3428 12.7763 48.9563 12.6992 48.5958 12.5496C48.2352 12.4 47.9078 12.1807 47.6321 11.9043C47.0845 11.3324 46.7788 10.5711 46.7788 9.77931C46.7788 8.98749 47.0845 8.22623 47.6321 7.65431C47.9078 7.37791 48.2352 7.15862 48.5958 7.00899C48.9563 6.85937 49.3428 6.78235 49.7332 6.78235C50.1235 6.78235 50.51 6.85937 50.8706 7.00899C51.2311 7.15862 51.5586 7.37791 51.8342 7.65431C52.1108 7.93381 52.3286 8.2658 52.4749 8.63074C52.6212 8.99568 52.693 9.38619 52.6862 9.77931C52.6975 10.173 52.6277 10.5648 52.4811 10.9304C52.3346 11.2959 52.1144 11.6275 51.8342 11.9043ZM48.1681 11.4257C48.3698 11.6352 48.6124 11.801 48.8808 11.913C49.1491 12.025 49.4376 12.0806 49.7284 12.0766C50.0194 12.0824 50.3084 12.0275 50.577 11.9154C50.8457 11.8033 51.088 11.6366 51.2886 11.4257C51.7017 10.9769 51.9309 10.3892 51.9309 9.77931C51.9309 9.16937 51.7017 8.58172 51.2886 8.13291C51.088 7.92204 50.8457 7.75527 50.577 7.6432C50.3084 7.53114 50.0194 7.47624 49.7284 7.48201C49.4376 7.47798 49.1491 7.53366 48.8808 7.64562C48.6124 7.75758 48.3698 7.92344 48.1681 8.13291C47.7612 8.58472 47.536 9.17124 47.536 9.77931C47.536 10.3874 47.7612 10.9739 48.1681 11.4257Z" fill="black" stroke="white" stroke-width="0.191441" stroke-miterlimit="10"/>
<path d="M56.4009 12.7757C56.0136 12.7817 55.6291 12.7094 55.2705 12.563C54.9119 12.4166 54.5866 12.1991 54.3142 11.9237C53.7619 11.3465 53.4536 10.5785 53.4536 9.77959C53.4536 8.98071 53.7619 8.21265 54.3142 7.63545C54.5911 7.35531 54.9226 7.13512 55.2881 6.98857C55.6537 6.84201 56.0455 6.77222 56.4392 6.78353C56.8399 6.7722 57.238 6.85254 57.6029 7.01843C57.9679 7.18431 58.2901 7.43137 58.5451 7.74074L58.0377 8.23849C57.8497 7.99671 57.6064 7.80359 57.3282 7.67534C57.0501 7.54709 56.7452 7.48745 56.4392 7.50144C56.1446 7.49392 55.8515 7.54696 55.5782 7.65728C55.3049 7.76759 55.0571 7.93283 54.8502 8.14277C54.4379 8.59573 54.2094 9.18622 54.2094 9.79874C54.2094 10.4113 54.4379 11.0017 54.8502 11.4547C55.0571 11.6646 55.3049 11.8299 55.5782 11.9402C55.8515 12.0505 56.1446 12.1035 56.4392 12.096C56.7681 12.0867 57.091 12.0056 57.3853 11.8585C57.6796 11.7113 57.9382 11.5016 58.143 11.2441L58.6599 11.7514C58.3977 12.0657 58.0713 12.3202 57.7027 12.4981C57.2955 12.6883 56.8503 12.7832 56.4009 12.7757Z" fill="black" stroke="white" stroke-width="0.191441" stroke-miterlimit="10"/>
<path d="M61.665 12.6516H60.9279V7.61666H59.3198V6.90833H63.2635V7.61666H61.665V12.6516Z" fill="black" stroke="white" stroke-width="0.191441" stroke-miterlimit="10"/>
<path d="M68.3371 6.90833L66.1642 11.7518C66.1115 11.946 66.0172 12.1264 65.8879 12.2805C65.7585 12.4347 65.5972 12.5588 65.4151 12.6444C65.233 12.73 65.0344 12.775 64.8332 12.7762C64.632 12.7774 64.4329 12.7349 64.2498 12.6516L64.4412 11.972C64.5584 12.0378 64.6898 12.0739 64.8241 12.0772C64.9658 12.0843 65.1062 12.0476 65.2261 11.972C65.3424 11.8752 65.4315 11.7498 65.4846 11.6082L65.6952 11.1488L63.7808 6.90833H64.6518L66.0685 10.2011L67.466 6.90833H68.3371Z" fill="black" stroke="white" stroke-width="0.191441" stroke-miterlimit="10"/>
<path d="M69.1694 12.6516V6.90833H73.3237V12.6516H72.5867V7.61666H69.9065V12.6516H69.1694Z" fill="black" stroke="white" stroke-width="0.191441" stroke-miterlimit="10"/>
<path d="M74.6353 12.6516V6.90833H75.3723V9.36835H78.2439V6.90833H78.9905V12.6516H78.2439V10.0575H75.3723V12.6516H74.6353Z" fill="black" stroke="white" stroke-width="0.191441" stroke-miterlimit="10"/>
<path d="M85.003 11.9043C84.7265 12.181 84.3983 12.4005 84.0369 12.5503C83.6756 12.7 83.2883 12.7771 82.8971 12.7771C82.506 12.7771 82.1187 12.7 81.7574 12.5503C81.396 12.4005 81.0678 12.181 80.7913 11.9043C80.2437 11.3324 79.938 10.5711 79.938 9.77931C79.938 8.98749 80.2437 8.22623 80.7913 7.65431C81.0669 7.37791 81.3944 7.15862 81.7549 7.00899C82.1155 6.85937 82.502 6.78235 82.8924 6.78235C83.2827 6.78235 83.6692 6.85937 84.0298 7.00899C84.3903 7.15862 84.7178 7.37791 84.9934 7.65431C85.5367 8.22846 85.8394 8.98887 85.8394 9.77931C85.8394 10.5697 85.5367 11.3302 84.9934 11.9043H85.003ZM81.3369 11.4257C81.5375 11.6366 81.7799 11.8033 82.0485 11.9154C82.3171 12.0275 82.6061 12.0824 82.8971 12.0766C83.1879 12.0806 83.4764 12.025 83.7448 11.913C84.0132 11.801 84.2557 11.6352 84.4574 11.4257C84.8643 10.9739 85.0895 10.3874 85.0895 9.77931C85.0895 9.17124 84.8643 8.58472 84.4574 8.13291C84.2557 7.92344 84.0132 7.75758 83.7448 7.64562C83.4764 7.53366 83.1879 7.47798 82.8971 7.48201C82.6061 7.47624 82.3171 7.53114 82.0485 7.6432C81.7799 7.75527 81.5375 7.92204 81.3369 8.13291C80.9239 8.58172 80.6946 9.16937 80.6946 9.77931C80.6946 10.3892 80.9239 10.9769 81.3369 11.4257Z" fill="black" stroke="white" stroke-width="0.191441" stroke-miterlimit="10"/>
<path d="M88.8589 12.6517V6.90841H90.936C91.3666 6.90409 91.7833 7.06118 92.1038 7.34873C92.2638 7.48754 92.3913 7.6598 92.4773 7.85333C92.5633 8.04685 92.6057 8.25692 92.6016 8.46866C92.6039 8.72651 92.5307 8.9794 92.391 9.19614C92.2497 9.40166 92.0542 9.56401 91.8262 9.66517C92.1026 9.75966 92.3454 9.93263 92.525 10.1629C92.7009 10.3975 92.7951 10.6833 92.793 10.9765C92.7979 11.1972 92.7541 11.4162 92.6648 11.6181C92.5754 11.8199 92.4428 11.9996 92.2761 12.1443C91.9439 12.4535 91.5046 12.6216 91.0509 12.6134L88.8589 12.6517ZM89.5959 9.36843H90.936C91.0614 9.37569 91.1868 9.35449 91.3029 9.30641C91.4189 9.25834 91.5226 9.18465 91.6061 9.09085C91.7684 8.93179 91.8613 8.71504 91.8645 8.4878C91.8736 8.25986 91.7948 8.03714 91.6444 7.86562C91.5639 7.77635 91.4646 7.70602 91.3538 7.65968C91.2429 7.61334 91.1231 7.59214 91.003 7.5976H89.6247L89.5959 9.36843ZM89.5959 11.9433H91.0892C91.2188 11.9477 91.3478 11.9233 91.467 11.872C91.5861 11.8207 91.6924 11.7438 91.7784 11.6466C91.9436 11.4701 92.036 11.2375 92.0368 10.9957C92.031 10.7559 91.9353 10.527 91.7688 10.3544C91.6765 10.2575 91.565 10.181 91.4413 10.1299C91.3176 10.0788 91.1846 10.0542 91.0509 10.0576H89.5959V11.9433Z" fill="black" stroke="white" stroke-width="0.191441" stroke-miterlimit="10"/>
</g>
<defs>
<linearGradient id="paint0_linear_2004_56" x1="21.5762" y1="8.54363" x2="5.51429" y2="24.6056" gradientUnits="userSpaceOnUse">
<stop stop-color="#00A0FF"/>
<stop offset="0.01" stop-color="#00A1FF"/>
<stop offset="0.26" stop-color="#00BEFF"/>
<stop offset="0.51" stop-color="#00D2FF"/>
<stop offset="0.76" stop-color="#00DFFF"/>
<stop offset="1" stop-color="#00E3FF"/>
</linearGradient>
<linearGradient id="paint1_linear_2004_56" x1="33.0926" y1="19.3509" x2="9.93781" y2="19.3509" gradientUnits="userSpaceOnUse">
<stop stop-color="#FFE000"/>
<stop offset="0.41" stop-color="#FFBD00"/>
<stop offset="0.78" stop-color="#FFA500"/>
<stop offset="1" stop-color="#FF9C00"/>
</linearGradient>
<linearGradient id="paint2_linear_2004_56" x1="24.4768" y1="21.5533" x2="2.69081" y2="43.3297" gradientUnits="userSpaceOnUse">
<stop stop-color="#FF3A44"/>
<stop offset="1" stop-color="#C31162"/>
</linearGradient>
<linearGradient id="paint3_linear_2004_56" x1="7.69701" y1="0.380251" x2="17.4222" y2="10.1055" gradientUnits="userSpaceOnUse">
<stop stop-color="#32A071"/>
<stop offset="0.07" stop-color="#2DA771"/>
<stop offset="0.48" stop-color="#15CF74"/>
<stop offset="0.8" stop-color="#06E775"/>
<stop offset="1" stop-color="#00F076"/>
</linearGradient>
<clipPath id="clip0_2004_56">
<rect width="129.223" height="38.2883" fill="white" transform="translate(0.709473 0.207153)"/>
</clipPath>
</defs>
</svg>
