<svg width="147" height="44" viewBox="0 0 147 44" fill="none" xmlns="http://www.w3.org/2000/svg">
<rect width="146.3" height="44" rx="6.75" fill="black"/>
<path d="M49.9359 27.9528H53.7812L52.4046 24.2676C52.2151 23.7585 52.0288 23.1962 51.8452 22.5804C51.6795 23.1252 51.4988 23.6815 51.3034 24.2498L49.9359 27.9528ZM54.4382 29.7023H49.2876L48.0269 33.1478H45.7623L50.8062 20.2805H52.9464L58.1058 33.1478H55.726L54.4382 29.7023Z" fill="white"/>
<path d="M64.7859 30.8079C65.2329 30.2071 65.4564 29.3293 65.4564 28.1749C65.4564 27.1035 65.2714 26.3263 64.9015 25.8437C64.5313 25.3613 64.0385 25.1201 63.4228 25.1201C62.9966 25.1201 62.6029 25.2209 62.2418 25.422C61.8807 25.6233 61.5372 25.8926 61.2116 26.2301V31.3629C61.4307 31.4694 61.6854 31.5538 61.9755 31.6157C62.2656 31.6783 62.5528 31.7093 62.8367 31.7093C63.6894 31.7093 64.3389 31.4087 64.7859 30.8079ZM59.0184 25.9105C59.0184 25.2001 58.9946 24.4185 58.9474 23.5661H61.0075C61.0843 23.9628 61.1377 24.3684 61.1673 24.7826C62.0198 23.8534 62.9966 23.3884 64.0977 23.3884C64.7372 23.3884 65.3292 23.5497 65.8739 23.8723C66.4183 24.1951 66.858 24.7041 67.1924 25.3997C67.5271 26.0954 67.6943 26.9792 67.6943 28.0506C67.6943 29.1695 67.5033 30.1257 67.1214 30.9188C66.7395 31.7123 66.2053 32.3129 65.5186 32.7217C64.8319 33.1299 64.0385 33.3343 63.1388 33.3343C62.4873 33.3343 61.8449 33.2247 61.2116 33.0058V36.9662L59.0184 37.1527V25.9105Z" fill="white"/>
<path d="M74.7929 30.8079C75.24 30.2071 75.4635 29.3293 75.4635 28.1749C75.4635 27.1035 75.2784 26.3263 74.9085 25.8437C74.5383 25.3613 74.0455 25.1201 73.4298 25.1201C73.0036 25.1201 72.61 25.2209 72.2489 25.422C71.8875 25.6233 71.5443 25.8926 71.2187 26.2301V31.3629C71.4378 31.4694 71.6921 31.5538 71.9825 31.6157C72.2723 31.6783 72.5595 31.7093 72.8437 31.7093C73.6962 31.7093 74.3459 31.4087 74.7929 30.8079ZM69.0251 25.9105C69.0251 25.2001 69.0014 24.4185 68.9541 23.5661H71.0145C71.0914 23.9628 71.1448 24.3684 71.1744 24.7826C72.0268 23.8534 73.0036 23.3884 74.1048 23.3884C74.7442 23.3884 75.3359 23.5497 75.8809 23.8723C76.4253 24.1951 76.865 24.7041 77.1997 25.3997C77.5338 26.0954 77.7014 26.9792 77.7014 28.0506C77.7014 29.1695 77.5101 30.1257 77.1285 30.9188C76.7465 31.7123 76.2121 32.3129 75.5257 32.7217C74.8387 33.1299 74.0455 33.3343 73.1456 33.3343C72.4944 33.3343 71.852 33.2247 71.2187 33.0058V36.9662L69.0251 37.1527V25.9105Z" fill="white"/>
<path d="M81.7306 32.5395C80.7831 32.0158 80.0551 31.2652 79.5461 30.2884C79.0366 29.3116 78.7823 28.1571 78.7823 26.8251C78.7823 25.3808 79.0753 24.1536 79.6614 23.1441C80.2475 22.135 81.0453 21.3771 82.0544 20.8709C83.0641 20.3648 84.1961 20.1117 85.4515 20.1117C86.1913 20.1117 86.8974 20.1931 87.5694 20.3558C88.2411 20.5188 88.8671 20.7421 89.4476 21.0264L88.8879 22.7135C87.7216 22.1571 86.6087 21.8788 85.5492 21.8788C84.6551 21.8788 83.8722 22.0698 83.2005 22.4517C82.5285 22.8336 82.0057 23.3945 81.6329 24.1345C81.2598 24.8745 81.0735 25.7684 81.0735 26.8161C81.0735 27.7341 81.217 28.5479 81.5038 29.2583C81.7913 29.9687 82.2442 30.5313 82.8629 30.9455C83.4815 31.36 84.2615 31.567 85.2028 31.567C85.629 31.567 86.0552 31.5316 86.4814 31.4606C86.9076 31.3896 87.3074 31.286 87.6803 31.1497V28.5479H84.7056V26.8429H89.8116V32.2599C89.0774 32.6031 88.3062 32.8668 87.4984 33.0502C86.69 33.2335 85.8865 33.3253 85.0872 33.3253C83.7965 33.3253 82.6775 33.0637 81.7306 32.5395Z" fill="white"/>
<path d="M96.2919 31.3716C96.7475 31.1529 97.1206 30.8803 97.4107 30.5548V28.7787C96.8126 28.7138 96.3242 28.6811 95.9455 28.6811C95.0397 28.6811 94.4134 28.8274 94.0676 29.1208C93.7209 29.4134 93.5478 29.8088 93.5478 30.306C93.5478 30.78 93.6737 31.1306 93.9253 31.3585C94.177 31.5864 94.5187 31.7003 94.9508 31.7003C95.3888 31.7003 95.8358 31.5908 96.2919 31.3716ZM97.6061 33.1478C97.529 32.7747 97.4785 32.3517 97.455 31.878C97.1177 32.2807 96.6783 32.6224 96.1362 32.9037C95.595 33.1848 94.9834 33.3253 94.3026 33.3253C93.752 33.3253 93.2504 33.2174 92.7972 33.0011C92.3449 32.7853 91.9849 32.4596 91.7186 32.0243C91.4522 31.5894 91.3188 31.0582 91.3188 30.4303C91.3188 29.5011 91.6532 28.7595 92.3223 28.2058C92.9914 27.6524 94.1072 27.3757 95.6701 27.3757C96.2562 27.3757 96.8364 27.4173 97.4107 27.5V27.3136C97.4107 26.467 97.23 25.8706 96.8689 25.524C96.5078 25.178 95.9898 25.0047 95.3151 25.0047C94.8473 25.0047 94.3472 25.0729 93.8142 25.2089C93.2815 25.3453 92.8136 25.508 92.4111 25.6974L92.0647 24.0989C92.4555 23.9212 92.9705 23.7585 93.61 23.6105C94.2495 23.4626 94.9241 23.3884 95.6346 23.3884C96.4635 23.3884 97.1679 23.5142 97.7481 23.7657C98.3283 24.0175 98.7812 24.4498 99.1068 25.0622C99.4324 25.6753 99.5952 26.4997 99.5952 27.5355V31.3449C99.5952 31.7419 99.6186 32.343 99.6662 33.1478H97.6061Z" fill="white"/>
<path d="M101.278 30.8478V19.5256L103.462 19.348V30.4571C103.462 30.8656 103.532 31.154 103.671 31.3229C103.81 31.4914 104.031 31.5762 104.333 31.5762C104.469 31.5762 104.661 31.5437 104.91 31.4784L105.167 33.0502C104.96 33.1331 104.707 33.1997 104.408 33.2499C104.109 33.3001 103.826 33.3253 103.56 33.3253C102.038 33.3253 101.278 32.4996 101.278 30.8478Z" fill="white"/>
<path d="M106.739 30.8478V19.5256L108.924 19.348V30.4571C108.924 30.8656 108.993 31.154 109.132 31.3229C109.272 31.4914 109.492 31.5762 109.794 31.5762C109.93 31.5762 110.123 31.5437 110.371 31.4784L110.629 33.0502C110.422 33.1331 110.168 33.1997 109.87 33.2499C109.571 33.3001 109.288 33.3253 109.021 33.3253C107.5 33.3253 106.739 32.4996 106.739 30.8478Z" fill="white"/>
<path d="M117.474 27.2425C117.43 26.4788 117.239 25.9061 116.896 25.524C116.553 25.1424 116.093 24.9513 115.521 24.9513C114.963 24.9513 114.5 25.1439 114.13 25.5286C113.761 25.9136 113.517 26.4848 113.406 27.2425H117.474ZM119.613 28.6367H113.344C113.444 30.6437 114.4 31.6471 116.213 31.6471C116.662 31.6471 117.122 31.5923 117.594 31.4829C118.064 31.3731 118.515 31.2268 118.947 31.0431L119.428 32.5438C118.354 33.0651 117.151 33.3253 115.814 33.3253C114.793 33.3253 113.937 33.1331 113.238 32.7483C112.537 32.3635 112.012 31.8099 111.66 31.0875C111.309 30.3656 111.133 29.4952 111.133 28.4768C111.133 27.4173 111.319 26.5054 111.693 25.7417C112.065 24.978 112.584 24.395 113.25 23.9924C113.916 23.5898 114.685 23.3884 115.556 23.3884C116.462 23.3884 117.216 23.6002 117.823 24.0235C118.43 24.4466 118.879 25.0107 119.173 25.715C119.466 26.4198 119.613 27.1981 119.613 28.0506V28.6367Z" fill="white"/>
<path d="M121.273 25.9726C121.273 25.4459 121.246 24.6438 121.199 23.5661H123.253C123.288 23.8325 123.32 24.1507 123.355 24.5208C123.388 24.8907 123.408 25.1911 123.42 25.422C123.675 25.0017 123.925 24.648 124.171 24.361C124.417 24.0736 124.705 23.84 125.033 23.6592C125.362 23.4787 125.734 23.3884 126.157 23.3884C126.494 23.3884 126.782 23.424 127.025 23.4951L126.749 25.3955C126.538 25.3304 126.301 25.2977 126.039 25.2977C125.526 25.2977 125.074 25.4295 124.69 25.693C124.306 25.9562 123.895 26.3899 123.455 26.9938V33.1478H121.273V25.9726Z" fill="white"/>
<path d="M128.257 37.0683C127.937 37.0122 127.673 36.9485 127.468 36.8776L127.867 35.2792C128.014 35.3203 128.201 35.3604 128.427 35.3989C128.65 35.4376 128.864 35.4567 129.067 35.4567C130.038 35.4567 130.765 34.8318 131.249 33.5829L131.393 33.2277L127.858 23.5661H130.211L131.988 28.9652C132.276 29.8889 132.463 30.5964 132.546 31.0875C132.713 30.3949 132.906 29.7023 133.132 29.0096L134.936 23.5661H137.145L133.622 33.2722C133.291 34.1897 132.93 34.9296 132.546 35.4922C132.161 36.0544 131.707 36.4719 131.185 36.7443C130.659 37.0164 130.029 37.1527 129.287 37.1527C128.92 37.1527 128.577 37.1249 128.257 37.0683Z" fill="white"/>
<path d="M45.7527 8.03118H49.6622L49.5522 8.97542H46.8984V10.8041H49.4009V11.6888H46.8984V13.7145H49.6942L49.598 14.6678H45.7527V8.03118Z" fill="white"/>
<path d="M52.3571 11.2807L50.2946 8.03118H51.5962L52.9942 10.4192L54.4655 8.03118H55.7304L53.6862 11.2394L55.9 14.6678H54.58L52.9989 12.0554L51.39 14.6678H50.1251L52.3571 11.2807Z" fill="white"/>
<path d="M59.6171 10.9941C59.8614 10.773 59.9837 10.4603 59.9837 10.0569C59.9837 9.64745 59.8591 9.35294 59.6103 9.17254C59.3613 8.99214 58.9952 8.90209 58.5127 8.90209H57.8893V11.2579C58.1765 11.3036 58.3965 11.3265 58.5493 11.3265C59.0166 11.3265 59.3727 11.2159 59.6171 10.9941ZM56.7433 8.03118H58.5309C59.371 8.03118 60.0143 8.20249 60.4604 8.54452C60.9066 8.88684 61.1295 9.38169 61.1295 10.0294C61.1295 10.4694 61.0295 10.8539 60.8294 11.1822C60.6291 11.5107 60.3504 11.763 59.9928 11.9384C59.6355 12.1144 59.2243 12.2021 58.7599 12.2021C58.5065 12.2021 58.2161 12.1716 57.8893 12.1103V14.6678H56.7433V8.03118Z" fill="white"/>
<path d="M62.2618 8.03118H63.4075V13.6869H66.1528L66.0566 14.6678H62.2618V8.03118Z" fill="white"/>
<path d="M70.8646 13.5288C71.1855 13.3135 71.4252 13.0173 71.5842 12.6397C71.7432 12.2625 71.8227 11.8307 71.8227 11.345C71.8227 10.8683 71.7523 10.4438 71.6117 10.0707C71.4709 9.69789 71.2466 9.40104 70.938 9.17928C70.6294 8.95782 70.2322 8.84693 69.7462 8.84693C69.2818 8.84693 68.8876 8.95928 68.5637 9.18397C68.2399 9.40837 67.997 9.70963 67.8351 10.0869C67.6732 10.4644 67.5922 10.8806 67.5922 11.3359C67.5922 11.8155 67.6685 12.2449 67.8213 12.6236C67.9738 13.0026 68.2076 13.3021 68.5227 13.5221C68.8371 13.7421 69.2267 13.8521 69.6913 13.8521C70.1527 13.8521 70.5437 13.7441 70.8646 13.5288ZM67.8946 14.3425C67.4089 14.0645 67.0375 13.674 66.7809 13.1713C66.5242 12.6688 66.396 12.0845 66.396 11.4183C66.396 10.7187 66.5324 10.1068 66.8061 9.58262C67.0795 9.05872 67.4737 8.65392 67.9885 8.36792C68.5033 8.08251 69.1105 7.93936 69.8104 7.93936C70.4795 7.93936 71.0556 8.07782 71.5384 8.35414C72.0209 8.63104 72.3894 9.01971 72.6428 9.52072C72.8966 10.022 73.0233 10.6025 73.0233 11.2625C73.0233 11.9745 72.8851 12.5934 72.6085 13.1187C72.3319 13.6441 71.938 14.0492 71.4261 14.3331C70.9142 14.6174 70.3132 14.7595 69.6227 14.7595C68.9565 14.7595 68.3804 14.6206 67.8946 14.3425Z" fill="white"/>
<path d="M76.0989 11.1707C76.3767 11.1707 76.6228 11.1168 76.8366 11.0079C77.0505 10.8997 77.2171 10.7469 77.3362 10.5497C77.4556 10.3526 77.5151 10.1241 77.5151 9.86452C77.5151 9.53158 77.4095 9.28782 77.1989 9.13353C76.988 8.97924 76.6809 8.90209 76.2776 8.90209H75.448V11.1707H76.0989ZM74.3022 8.03118H76.3784C77.1361 8.03118 77.7099 8.18254 78.0995 8.48497C78.489 8.7874 78.6838 9.22006 78.6838 9.78209C78.6838 10.1335 78.6134 10.443 78.4729 10.7102C78.3323 10.9777 78.1581 11.1954 77.9504 11.3632C77.7425 11.5312 77.5289 11.6565 77.3089 11.7392L79.3484 14.6678H78.0194L76.2913 12.0369H75.448V14.6678H74.3022V8.03118Z" fill="white"/>
<path d="M80.256 8.03118H84.1656L84.0556 8.97542H81.4017V10.8041H83.9042V11.6888H81.4017V13.7145H84.1975L84.1013 14.6678H80.256V8.03118Z" fill="white"/>
<path d="M88.4189 8.03118H89.5647V14.6678H88.4189V8.03118Z" fill="white"/>
<path d="M92.5942 8.98921H90.5362L90.6371 8.03118H95.8027L95.6971 8.98921H93.7399V14.6678H92.5942V8.98921Z" fill="white"/>
<path d="M103.746 13.5288C104.066 13.3135 104.306 13.0173 104.465 12.6397C104.624 12.2625 104.703 11.8307 104.703 11.345C104.703 10.8683 104.633 10.4438 104.493 10.0707C104.352 9.69789 104.127 9.40104 103.819 9.17928C103.51 8.95782 103.113 8.84693 102.627 8.84693C102.162 8.84693 101.768 8.95928 101.445 9.18397C101.121 9.40837 100.878 9.70963 100.716 10.0869C100.554 10.4644 100.473 10.8806 100.473 11.3359C100.473 11.8155 100.549 12.2449 100.702 12.6236C100.855 13.0026 101.089 13.3021 101.403 13.5221C101.718 13.7421 102.108 13.8521 102.572 13.8521C103.033 13.8521 103.425 13.7441 103.746 13.5288ZM100.776 14.3425C100.29 14.0645 99.9184 13.674 99.6618 13.1713C99.4051 12.6688 99.2766 12.0845 99.2766 11.4183C99.2766 10.7187 99.4133 10.1068 99.687 9.58262C99.9601 9.05872 100.354 8.65392 100.869 8.36792C101.384 8.08251 101.991 7.93936 102.691 7.93936C103.36 7.93936 103.936 8.07782 104.419 8.35414C104.902 8.63104 105.27 9.01971 105.524 9.52072C105.777 10.022 105.904 10.6025 105.904 11.2625C105.904 11.9745 105.766 12.5934 105.489 13.1187C105.213 13.6441 104.819 14.0492 104.307 14.3331C103.795 14.6174 103.194 14.7595 102.503 14.7595C101.837 14.7595 101.261 14.6206 100.776 14.3425Z" fill="white"/>
<path d="M107.183 8.03118H108.498L111.781 13.1736C111.751 12.6849 111.739 12.2341 111.739 11.8216V8.03118H112.801V14.6678H111.528L108.196 9.4427C108.229 10.0358 108.246 10.5612 108.246 11.0194V14.6678H107.183V8.03118Z" fill="white"/>
<path fill-rule="evenodd" clip-rule="evenodd" d="M29.636 8.06667H17.4498C11.7092 8.06667 9.60956 10.1663 9.60956 15.9069V28.0933C9.60956 33.8337 11.7092 35.9333 17.4498 35.9333H29.6322C35.3727 35.9333 37.4762 33.8337 37.4762 28.0933V15.9069C37.4762 10.1663 35.3765 8.06667 29.636 8.06667Z" fill="#C91C2E"/>
<path d="M21.7671 24.2281H22.8847L22.3241 22.9245L21.7671 24.2281ZM21.4919 24.8852L21.1604 25.6438H20.4057L22.0108 22.0024H22.6629L24.2616 25.6438H23.4866L23.1592 24.8852H21.4919ZM33.6368 25.6412H34.3663V22.0024H33.6368V25.6412ZM30.7337 24.0776H32.078V23.4145H30.7337V22.6686H32.6852V22.0047H30.0044V25.6434H32.7556V24.9797H30.7337V24.0776ZM27.8352 24.5076L27.008 22.0023H26.4049L25.5778 24.5076L24.7728 22.004H23.9861L25.256 25.6455H25.8678L26.6962 23.2535L27.5243 25.6455H28.1418L29.4084 22.004H28.6419L27.8352 24.5076ZM19.2922 24.0877C19.2922 24.6801 18.998 24.9966 18.4638 24.9966C17.9267 24.9966 17.6311 24.6712 17.6311 24.0625V22.0045H16.8918V24.0877C16.8918 25.1127 17.4612 25.7003 18.4538 25.7003C19.4562 25.7003 20.0311 25.1014 20.0311 24.0576V22.0023H19.2922V24.0877ZM15.128 22.0024H15.8669V25.6457H15.128V24.1662H13.4587V25.6457H12.7195V22.0024H13.4587V23.4722H15.128V22.0024Z" fill="white"/>
<path d="M23.5429 17.3636C20.9853 17.3636 18.9044 15.2827 18.9044 12.7251H19.5597C19.5597 14.9214 21.3464 16.7083 23.5429 16.7083C25.7394 16.7083 27.5261 14.9214 27.5261 12.7251H28.1814C28.1814 15.2827 26.1005 17.3636 23.5429 17.3636Z" fill="white"/>
</svg>
